<svg xmlns="http://www.w3.org/2000/svg" viewBox="0 0 300 62"><defs><style>.cls-1{fill:#262424;}.cls-2{fill:#6da550;}</style></defs><title>fatec_logo</title><g id="Layer_2" data-name="Layer 2"><polyline class="cls-1" points="31.44 7.47 50.14 7.47 48.89 13.96 37.84 13.96 36.72 19.69 47.14 19.69 45.89 26.14 35.51 26.14 33.36 37.64 25.71 37.64 31.44 7.47"/><path class="cls-1" d="M56,30.57l-3,7.07H44.81L59.14,7.48h10l3.22,30.16H64.28l-.36-7.07H56m7.65-5.77-.31-5.55c-.13-1.7-.22-4.21-.4-6.09h-.09c-.76,1.88-1.61,4.43-2.37,6.13L58.15,24.8Z"/><polyline class="cls-1" points="82.49 14.14 74.93 14.14 76.23 7.47 99.14 7.47 97.84 14.14 90.14 14.14 85.72 37.64 78.11 37.64 82.49 14.14"/><polyline class="cls-1" points="117.67 25.42 107.06 25.42 105.94 31.15 117.89 31.15 116.64 37.64 97.08 37.64 102.81 7.47 121.74 7.47 120.48 13.96 109.21 13.96 108.22 18.98 118.92 18.98 117.67 25.42"/><path class="cls-1" d="M144.56,36.83a20.17,20.17,0,0,1-8,1.25c-8.19,0-13.83-4.88-13.83-12.89,0-7.3,3.36-12.44,8.14-15.35A19.88,19.88,0,0,1,141.83,7a16.9,16.9,0,0,1,6.62,1.16l-2,6.22a15.44,15.44,0,0,0-5.28-.85A10.1,10.1,0,0,0,135,15.44c-2.37,1.79-3.94,4.88-3.94,8.9,0,4.57,2.82,7.21,7.52,7.21a14.81,14.81,0,0,0,5.41-.9l.54,6.18"/><path class="cls-2" d="M150.56,29.95a16.66,16.66,0,0,0,7.9,2c2.24,0,4.28-.81,4.28-2.71,0-1.57-1.43-2.48-4.19-3.9-3.09-1.67-6.76-4.14-6.76-8.57,0-6.81,6-10.86,13.42-10.86a17.77,17.77,0,0,1,8,1.52l-2.48,6.81a13.87,13.87,0,0,0-6.14-1.33c-2.9,0-4.28,1.15-4.28,2.52s2.14,2.52,4.57,3.91c3.9,2,6.47,4.62,6.47,8.42,0,7.8-6.62,11.18-13.71,11.18-5-.1-8.23-1.24-9.81-2.33l2.67-6.67"/><polyline class="cls-2" points="195.83 25.48 184.55 25.48 183.35 31.57 196.06 31.57 194.73 38.47 173.93 38.47 180.02 6.39 200.16 6.39 198.83 13.29 186.83 13.29 185.78 18.62 197.16 18.62 195.83 25.48"/><path class="cls-2" d="M199.59,38.47l6-32.08h9.66l2.9,9.71c1.24,4.24,2.19,7.95,3,11.81h.14a91.23,91.23,0,0,1,1.52-12.14l1.76-9.38h7.57l-6,32.08h-8.52L214.34,28c-1.33-4.52-2.28-7.71-3.19-12H211c-.38,3.19-1.24,8.28-2.24,13.61l-1.67,8.85h-7.52"/><path class="cls-2" d="M241.86,30.95l-3.19,7.52H230L245.19,6.39H255.8l3.43,32.08h-8.57l-.38-7.52h-8.43M250,24.81l-.33-5.91c-.14-1.81-.24-4.47-.43-6.47h-.1c-.81,2-1.71,4.71-2.52,6.53l-2.48,5.85Z"/><polyline class="cls-2" points="276.46 6.39 270.37 38.47 262.28 38.47 268.37 6.39 276.46 6.39"/><rect class="cls-1" x="279.1" y="17.23" width="16.37" height="1.11"/><rect class="cls-1" x="279.1" y="20.7" width="16.37" height="1.12"/><rect class="cls-1" x="279.1" y="24.03" width="16.37" height="1.11"/><rect class="cls-1" x="279.1" y="27.34" width="16.37" height="1.11"/><rect class="cls-1" x="279.1" y="30.67" width="16.37" height="1.11"/><rect class="cls-1" x="4.52" y="17.23" width="16.37" height="1.11"/><rect class="cls-1" x="4.52" y="20.7" width="16.37" height="1.12"/><rect class="cls-1" x="4.52" y="24.03" width="16.37" height="1.11"/><rect class="cls-1" x="4.52" y="27.34" width="16.37" height="1.11"/><rect class="cls-1" x="4.52" y="30.67" width="16.37" height="1.11"/><path class="cls-1" d="M28.52,43.82h4.94l-.27,1.31H29.83l-.48,2.52h3.13L32.23,49H29.1l-.72,3.81H26.83Z"/><path class="cls-1" d="M37,52.77c0-.38.07-.9.12-1.46h0a2.59,2.59,0,0,1-2.31,1.61,2,2,0,0,1-1.91-2.2,4.43,4.43,0,0,1,4.55-4.55,6.88,6.88,0,0,1,2,.29l-.66,3.37a15.11,15.11,0,0,0-.27,2.95Zm.64-5.35a2.58,2.58,0,0,0-.64-.07c-1.43,0-2.54,1.61-2.54,3.08,0,.68.25,1.24.93,1.24s1.59-.9,1.9-2.55Z"/><path class="cls-1" d="M44.56,52.54a4.39,4.39,0,0,1-1.86.36,2.43,2.43,0,0,1-2.62-2.58,4.09,4.09,0,0,1,4.12-4.17,3.49,3.49,0,0,1,1.31.25l-.4,1.21a2.29,2.29,0,0,0-1-.2,2.59,2.59,0,0,0-2.44,2.72,1.35,1.35,0,0,0,1.42,1.51,3.32,3.32,0,0,0,1.38-.31Z"/><path class="cls-1" d="M52.34,46.31l-.85,4.46c-.15.77-.24,1.45-.32,2H49.8l.13-1.13h0a2.85,2.85,0,0,1-2.24,1.27c-.94,0-1.69-.5-1.69-1.83a5.45,5.45,0,0,1,.13-1.16l.69-3.62h1.54l-.66,3.53a4.59,4.59,0,0,0-.11.89c0,.53.21.92.82.92s1.55-.85,1.81-2.19l.6-3.15Z"/><path class="cls-1" d="M52.88,52.77l1.81-9.43h1.54l-1.79,9.43Z"/><path class="cls-1" d="M63.44,43.34l-1.35,7.13a18,18,0,0,0-.29,2.3H60.38l.13-1.16h0a2.62,2.62,0,0,1-2.22,1.3c-1.16,0-2-.94-2-2.4a4.19,4.19,0,0,1,4-4.35,2.69,2.69,0,0,1,1,.19l.57-3Zm-2.34,4.26a1.57,1.57,0,0,0-.89-.25c-1.33,0-2.31,1.47-2.31,2.92,0,.78.31,1.39,1,1.39s1.51-.76,1.78-2.1Z"/><path class="cls-1" d="M67.65,52.77c0-.38.07-.9.12-1.46h0a2.59,2.59,0,0,1-2.31,1.61,2,2,0,0,1-1.91-2.2,4.43,4.43,0,0,1,4.55-4.55,6.88,6.88,0,0,1,2,.29l-.66,3.37a15.11,15.11,0,0,0-.27,2.95Zm.64-5.35a2.58,2.58,0,0,0-.64-.07c-1.43,0-2.54,1.61-2.54,3.08,0,.68.25,1.24.93,1.24s1.59-.9,1.9-2.55Z"/><path class="cls-1" d="M77.83,43.34l-1.35,7.13a18,18,0,0,0-.29,2.3H74.76l.13-1.16h0a2.62,2.62,0,0,1-2.22,1.3c-1.16,0-2-.94-2-2.4a4.19,4.19,0,0,1,4-4.35,2.69,2.69,0,0,1,1,.19l.57-3Zm-2.34,4.26a1.57,1.57,0,0,0-.89-.25c-1.33,0-2.31,1.47-2.31,2.92,0,.78.31,1.39,1,1.39s1.51-.76,1.78-2.1Z"/><path class="cls-1" d="M82.86,52.4a5.19,5.19,0,0,1-2.28.5,2.43,2.43,0,0,1-2.66-2.67,3.93,3.93,0,0,1,3.66-4.08A1.85,1.85,0,0,1,83.67,48c0,1.66-1.74,2.19-4.24,2.14a1.79,1.79,0,0,0,.17.92,1.43,1.43,0,0,0,1.33.66,3.82,3.82,0,0,0,1.78-.42Zm-1.47-5.08A2,2,0,0,0,79.59,49c1.59,0,2.62-.2,2.62-1C82.21,47.57,81.88,47.31,81.39,47.31Z"/><path class="cls-1" d="M93.84,43.34l-1.35,7.13a18,18,0,0,0-.29,2.3H90.77l.13-1.16h0a2.62,2.62,0,0,1-2.22,1.3c-1.16,0-2-.94-2-2.4a4.19,4.19,0,0,1,4-4.35,2.69,2.69,0,0,1,1,.19l.57-3ZM91.5,47.61a1.57,1.57,0,0,0-.89-.25c-1.33,0-2.31,1.47-2.31,2.92,0,.78.31,1.39,1,1.39s1.51-.76,1.78-2.1Z"/><path class="cls-1" d="M98.87,52.4a5.19,5.19,0,0,1-2.28.5,2.43,2.43,0,0,1-2.66-2.67,3.93,3.93,0,0,1,3.66-4.08A1.85,1.85,0,0,1,99.68,48c0,1.66-1.74,2.19-4.24,2.14a1.79,1.79,0,0,0,.17.92,1.43,1.43,0,0,0,1.33.66,3.82,3.82,0,0,0,1.78-.42Zm-1.47-5.08A2,2,0,0,0,95.6,49c1.59,0,2.62-.2,2.62-1C98.22,47.57,97.88,47.31,97.39,47.31Z"/><path class="cls-1" d="M105.67,45.18h-2.48l.27-1.35H110l-.27,1.35h-2.5l-1.43,7.59h-1.55Z"/><path class="cls-1" d="M113.45,52.4a5.19,5.19,0,0,1-2.28.5,2.43,2.43,0,0,1-2.66-2.67,3.93,3.93,0,0,1,3.66-4.08A1.85,1.85,0,0,1,114.26,48c0,1.66-1.74,2.19-4.23,2.14a1.78,1.78,0,0,0,.17.92,1.43,1.43,0,0,0,1.33.66,3.82,3.82,0,0,0,1.78-.42ZM112,47.31A2,2,0,0,0,110.18,49c1.59,0,2.62-.2,2.62-1C112.8,47.57,112.47,47.31,112,47.31Z"/><path class="cls-1" d="M119.39,52.54a4.39,4.39,0,0,1-1.86.36,2.43,2.43,0,0,1-2.62-2.58A4.09,4.09,0,0,1,119,46.16a3.49,3.49,0,0,1,1.31.25l-.4,1.21a2.29,2.29,0,0,0-1-.2,2.59,2.59,0,0,0-2.44,2.72A1.35,1.35,0,0,0,118,51.65a3.32,3.32,0,0,0,1.38-.31Z"/><path class="cls-1" d="M120.48,52.77l.84-4.46c.16-.77.25-1.45.33-2H123l-.13,1.17h0a2.77,2.77,0,0,1,2.32-1.31,1.58,1.58,0,0,1,1.65,1.78,6.34,6.34,0,0,1-.12,1.08L126,52.77h-1.54l.69-3.65a5,5,0,0,0,.08-.77c0-.53-.2-.93-.81-.93s-1.61.85-1.88,2.36l-.56,3Z"/><path class="cls-1" d="M134.33,48.84a3.87,3.87,0,0,1-3.74,4.08,2.52,2.52,0,0,1-2.64-2.67,3.87,3.87,0,0,1,3.73-4.09A2.53,2.53,0,0,1,134.33,48.84Zm-4.79,1.37c0,.89.48,1.51,1.26,1.51,1.15,0,1.92-1.59,1.92-2.88,0-.66-.29-1.49-1.23-1.49C130.25,47.35,129.53,49,129.53,50.21Z"/><path class="cls-1" d="M135,52.77l1.81-9.43h1.54l-1.79,9.43Z"/><path class="cls-1" d="M144.84,48.84a3.87,3.87,0,0,1-3.74,4.08,2.52,2.52,0,0,1-2.64-2.67,3.87,3.87,0,0,1,3.73-4.09A2.53,2.53,0,0,1,144.84,48.84ZM140,50.21c0,.89.48,1.51,1.26,1.51,1.15,0,1.92-1.59,1.92-2.88,0-.66-.29-1.49-1.23-1.49C140.76,47.35,140,49,140,50.21Z"/><path class="cls-1" d="M145.8,53.93a3.84,3.84,0,0,0,1.71.38c1,0,1.78-.48,2.1-2l.16-.73h0a2.37,2.37,0,0,1-2,1.14,2.09,2.09,0,0,1-2-2.28,4.19,4.19,0,0,1,4.23-4.3,5.72,5.72,0,0,1,2.24.45l-1,5.34a4.84,4.84,0,0,1-1.33,2.88,3.77,3.77,0,0,1-2.4.72,4.15,4.15,0,0,1-2-.44Zm4.67-6.4a2.15,2.15,0,0,0-.85-.16c-1.35,0-2.31,1.46-2.31,2.85,0,.68.27,1.31,1,1.31s1.54-.92,1.77-2.08Z"/><path class="cls-1" d="M152.76,52.77,154,46.31h1.55l-1.23,6.46Zm1.47-8.22a.92.92,0,0,1,.93-.94.8.8,0,0,1,.82.84.92.92,0,0,1-1,.93A.77.77,0,0,1,154.23,44.55Z"/><path class="cls-1" d="M160.31,52.77c0-.38.07-.9.12-1.46h0a2.59,2.59,0,0,1-2.31,1.61,2,2,0,0,1-1.91-2.2,4.43,4.43,0,0,1,4.55-4.55,6.88,6.88,0,0,1,2,.29L162,49.82a15.11,15.11,0,0,0-.27,2.95Zm.64-5.35a2.58,2.58,0,0,0-.64-.07c-1.43,0-2.54,1.61-2.54,3.08,0,.68.25,1.24.93,1.24s1.59-.9,1.9-2.55Z"/><path class="cls-1" d="M166,51a3.76,3.76,0,0,0,2,.57c.86,0,1.66-.46,1.66-1.33,0-.58-.38-1-1.26-1.45-1-.56-1.82-1.27-1.82-2.34,0-1.71,1.49-2.79,3.29-2.79a4,4,0,0,1,2,.45l-.5,1.29a3.37,3.37,0,0,0-1.62-.4c-1,0-1.54.57-1.54,1.17s.5,1,1.34,1.45A2.66,2.66,0,0,1,171.29,50c0,1.79-1.45,2.89-3.45,2.89a4.13,4.13,0,0,1-2.38-.62Z"/><path class="cls-1" d="M177.74,48.79h-3.21l-.5,2.67h3.61l-.25,1.31h-5.16l1.7-8.95h5l-.25,1.31h-3.41l-.45,2.35H178Z"/><path class="cls-1" d="M178.8,52.77l1.7-8.95h1.78L183.84,48a22.93,22.93,0,0,1,.81,2.8h0a23.59,23.59,0,0,1,.4-3l.74-3.93h1.46l-1.7,8.95H184l-1.61-4.23a21.84,21.84,0,0,1-.85-2.88h-.05c-.09.85-.28,2-.52,3.28l-.73,3.82Z"/><path class="cls-1" d="M189.61,50.22l-1.22,2.55h-1.65l4.49-8.95h1.94l1.13,8.95h-1.62l-.25-2.55ZM192.34,49l-.25-2.23c0-.48-.09-1.17-.13-1.7h0c-.24.53-.48,1.17-.73,1.7L190.11,49Z"/><path class="cls-1" d="M198.57,43.82l-1.7,8.95h-1.55l1.7-8.95Z"/><path class="cls-1" d="M208.66,52.77l.6-4.21c.13-.92.32-2.18.54-3.28h0c-.46,1-1,2.2-1.49,3.15l-2.2,4.23h-1.19l-.46-4.17c-.11-1-.19-2.15-.24-3.21h0c-.24,1-.5,2.38-.73,3.28l-1,4.21H201l2.27-8.95h2l.48,4.18c.07.8.16,1.73.17,2.58H206A28,28,0,0,1,207.11,48l2.16-4.19h2.07l-1.18,8.95Z"/><path class="cls-1" d="M216,52.77c0-.38.07-.9.12-1.46h0a2.59,2.59,0,0,1-2.31,1.61,2,2,0,0,1-1.91-2.2,4.43,4.43,0,0,1,4.55-4.55,6.88,6.88,0,0,1,2,.29l-.66,3.37a15.11,15.11,0,0,0-.27,2.95Zm.64-5.35a2.58,2.58,0,0,0-.64-.07c-1.43,0-2.54,1.61-2.54,3.08,0,.68.25,1.24.93,1.24s1.59-.9,1.9-2.55Z"/><path class="cls-1" d="M222.24,44.53l-.33,1.78h1.46l-.24,1.19h-1.45l-.52,2.62a5.65,5.65,0,0,0-.11.92.51.51,0,0,0,.57.57,3.41,3.41,0,0,0,.53,0L222,52.78a3.53,3.53,0,0,1-1,.13c-1.06,0-1.54-.58-1.54-1.33a5.3,5.3,0,0,1,.15-1.21l.56-2.88h-.88l.23-1.19h.88l.27-1.39Z"/><path class="cls-1" d="M229.83,48.84a3.87,3.87,0,0,1-3.74,4.08,2.52,2.52,0,0,1-2.64-2.67,3.87,3.87,0,0,1,3.73-4.09A2.53,2.53,0,0,1,229.83,48.84ZM225,50.21c0,.89.48,1.51,1.26,1.51,1.15,0,1.92-1.59,1.92-2.88,0-.66-.29-1.49-1.23-1.49C225.75,47.35,225,49,225,50.21Z"/><path class="cls-1" d="M240,52.37a8.61,8.61,0,0,1-2.73.49,4,4,0,0,1-2.95-1,3.66,3.66,0,0,1-1-2.68A5.37,5.37,0,0,1,235.1,45a5.85,5.85,0,0,1,3.82-1.31,5.28,5.28,0,0,1,2.26.41l-.48,1.3a4.41,4.41,0,0,0-1.9-.37,3.79,3.79,0,0,0-2.5.88A4.06,4.06,0,0,0,235,49a2.29,2.29,0,0,0,2.55,2.54,3.15,3.15,0,0,0,1.14-.2l.42-2.24h-1.58l.25-1.25h3.08Z"/><path class="cls-1" d="M241.56,52.77l.76-4c.17-.92.25-1.9.33-2.48H244c0,.44-.08.89-.15,1.37h0a2.38,2.38,0,0,1,2-1.51l.33,0-.3,1.51-.29,0c-1.1,0-1.81,1.12-2.06,2.5l-.49,2.6Z"/><path class="cls-1" d="M252.66,48.84a3.87,3.87,0,0,1-3.74,4.08,2.52,2.52,0,0,1-2.64-2.67A3.87,3.87,0,0,1,250,46.16,2.53,2.53,0,0,1,252.66,48.84Zm-4.79,1.37c0,.89.48,1.51,1.26,1.51,1.15,0,1.92-1.59,1.92-2.88,0-.66-.29-1.49-1.23-1.49C248.58,47.35,247.86,49,247.86,50.21Z"/><path class="cls-1" d="M253.48,51.32a3.52,3.52,0,0,0,1.55.44c.62,0,1-.37,1-.8s-.21-.66-.85-1a2,2,0,0,1-1.27-1.69c0-1.25,1.09-2.12,2.62-2.12a3.21,3.21,0,0,1,1.53.33l-.4,1.12a2.58,2.58,0,0,0-1.21-.29c-.58,0-1,.32-1,.76s.29.61.84.89a2.1,2.1,0,0,1,1.34,1.74c0,1.42-1.2,2.2-2.75,2.2a3.35,3.35,0,0,1-1.81-.46Z"/><path class="cls-1" d="M258.75,51.32a3.52,3.52,0,0,0,1.55.44c.62,0,1-.37,1-.8s-.21-.66-.85-1a2,2,0,0,1-1.27-1.69c0-1.25,1.09-2.12,2.62-2.12a3.21,3.21,0,0,1,1.53.33l-.4,1.12a2.58,2.58,0,0,0-1.21-.29c-.58,0-1,.32-1,.76s.29.61.84.89a2.1,2.1,0,0,1,1.34,1.74c0,1.42-1.2,2.2-2.75,2.2a3.35,3.35,0,0,1-1.81-.46Z"/><path class="cls-1" d="M270.4,48.84a3.87,3.87,0,0,1-3.74,4.08A2.52,2.52,0,0,1,264,50.25a3.87,3.87,0,0,1,3.73-4.09A2.53,2.53,0,0,1,270.4,48.84Zm-4.79,1.37c0,.89.48,1.51,1.26,1.51,1.15,0,1.92-1.59,1.92-2.88,0-.66-.29-1.49-1.23-1.49C266.32,47.35,265.61,49,265.61,50.21Z"/></g></svg>